<svg width="727" height="651" viewBox="0 0 727 651" fill="none" xmlns="http://www.w3.org/2000/svg">
<path d="M554.302 180.334C630.229 259.474 670 368.633 635.394 446.864C600.271 524.639 490.772 571.487 386.954 606.963C283.136 642.44 185.517 667.001 126.118 636.072C66.7202 605.144 46.06 518.727 25.3997 433.674C4.22297 348.621 -16.9538 264.477 20.7512 193.069C58.9726 121.661 156.592 62.9881 261.443 57.5302C366.294 52.527 478.376 101.194 554.302 180.334Z" fill="#F2F4F8"/>
<rect width="14.1375" height="154.193" rx="5" transform="matrix(0.971133 -0.238537 0.252931 0.967484 469.495 381.745)" fill="#9C2850"/>
<rect width="14.1375" height="154.193" rx="5" transform="matrix(0.971133 -0.238537 0.252931 0.967484 469.495 381.745)" fill="#9C2850"/>
<rect width="14.1375" height="154.193" rx="5" transform="matrix(0.971133 -0.238537 0.252931 0.967484 469.495 381.745)" fill="#9C2850"/>
<rect width="14.1375" height="154.193" rx="5" transform="matrix(0.971133 -0.238537 0.252931 0.967484 469.495 381.745)" fill="#9C2850"/>
<rect width="13.2166" height="76.5781" rx="5" transform="matrix(0.252931 0.967484 -0.971133 0.238537 512.444 364.391)" fill="#9C2850"/>
<rect width="13.2166" height="76.5781" rx="5" transform="matrix(0.252931 0.967484 -0.971133 0.238537 512.444 364.391)" fill="#9C2850"/>
<rect width="13.2166" height="76.5781" rx="5" transform="matrix(0.252931 0.967484 -0.971133 0.238537 512.444 364.391)" fill="#9C2850"/>
<rect width="13.2166" height="76.5781" rx="5" transform="matrix(0.252931 0.967484 -0.971133 0.238537 512.444 364.391)" fill="#9C2850"/>
<rect x="14.832" y="544.803" width="709.078" height="61.2873" rx="5" transform="rotate(-6.21078 14.832 544.803)" fill="#F0417E"/>
<rect x="82.627" y="458.245" width="369.223" height="37.0501" rx="5" transform="rotate(-33.9449 82.627 458.245)" fill="#F0417E"/>
<rect x="486.74" y="335.617" width="70.2673" height="194.193" rx="5" transform="rotate(146.055 486.74 335.617)" fill="#9C2850"/>
<rect x="486.74" y="335.617" width="70.2673" height="194.193" rx="5" transform="rotate(146.055 486.74 335.617)" fill="#9C2850"/>
<rect x="486.74" y="335.617" width="70.2673" height="194.193" rx="5" transform="rotate(146.055 486.74 335.617)" fill="#9C2850"/>
<rect x="486.74" y="335.617" width="70.2673" height="194.193" rx="5" transform="rotate(146.055 486.74 335.617)" fill="#9C2850"/>
<path d="M318.364 156.143C318.099 152.303 322.091 149.617 325.549 151.308L380.561 178.204C384.019 179.895 384.35 184.695 381.157 186.844L330.357 221.038C327.164 223.187 322.842 221.074 322.577 217.234L318.364 156.143Z" fill="#9C2850"/>
<mask id="path-8-outside-1_1089_139" maskUnits="userSpaceOnUse" x="67.2191" y="-2.05827" width="272.183" height="225.741" fill="black">
<rect fill="white" x="67.2191" y="-2.05827" width="272.183" height="225.741"/>
<path fill-rule="evenodd" clip-rule="evenodd" d="M73.5042 88.3695C74.7091 89.7733 76.8642 90.3671 78.7242 89.8354C165.236 65.1053 262.704 83.5872 325.871 137.97C327.433 139.315 329.87 139.605 331.612 138.621V138.621C333.728 137.425 333.961 134.871 332.067 133.237C266.187 76.3842 164.824 57.3996 75.2803 83.0254C72.6812 83.7692 71.8203 86.4076 73.5042 88.3695V88.3695Z"/>
</mask>
<path fill-rule="evenodd" clip-rule="evenodd" d="M73.5042 88.3695C74.7091 89.7733 76.8642 90.3671 78.7242 89.8354C165.236 65.1053 262.704 83.5872 325.871 137.97C327.433 139.315 329.87 139.605 331.612 138.621V138.621C333.728 137.425 333.961 134.871 332.067 133.237C266.187 76.3842 164.824 57.3996 75.2803 83.0254C72.6812 83.7692 71.8203 86.4076 73.5042 88.3695V88.3695Z" fill="#F36B9B"/>
<path d="M75.2803 83.0254L76.1084 84.7403L75.2803 83.0254ZM332.067 133.237L330.551 134.446L332.067 133.237ZM325.871 137.97L324.357 139.181L325.871 137.97ZM327.385 136.759C263.534 81.7874 165.125 63.1853 77.8968 88.1204L79.5517 91.5505C165.347 67.0252 261.874 85.3869 324.357 139.181L327.385 136.759ZM76.1084 84.7403C164.937 59.3193 265.357 78.185 330.551 134.446L333.583 132.028C267.018 74.5835 164.712 55.4798 74.4522 81.3105L76.1084 84.7403ZM74.4522 81.3105C70.514 82.4375 69.2449 86.4198 71.7631 89.3537L75.2452 87.3853C74.3957 86.3955 74.8485 85.1008 76.1084 84.7403L74.4522 81.3105ZM332.915 140.138C336.076 138.351 336.457 134.508 333.583 132.028L330.551 134.446C331.465 135.235 331.38 136.498 330.31 137.103L332.915 140.138ZM77.8968 88.1204C76.9341 88.3955 75.8429 88.0816 75.2452 87.3853L71.7631 89.3537C73.5753 91.465 76.7943 92.3387 79.5517 91.5505L77.8968 88.1204ZM324.357 139.181C326.666 141.169 330.294 141.62 332.915 140.138L330.31 137.103C329.445 137.591 328.2 137.461 327.385 136.759L324.357 139.181Z" fill="#F36B9B" mask="url(#path-8-outside-1_1089_139)"/>
<mask id="path-10-outside-2_1089_139" maskUnits="userSpaceOnUse" x="6.06577" y="17.2646" width="291.58" height="230.065" fill="black">
<rect fill="white" x="6.06577" y="17.2646" width="291.58" height="230.065"/>
<path fill-rule="evenodd" clip-rule="evenodd" d="M12.3561 124.922C13.6198 126.394 15.9127 126.968 17.8069 126.303C63.606 110.226 110.333 102.832 153.326 103.895C205.688 105.189 251.91 118.956 284.694 144.324C286.282 145.553 288.615 145.781 290.296 144.831V144.831C292.48 143.597 292.655 140.937 290.596 139.338C227.226 90.1178 117.838 83.1258 13.9047 119.634C11.4736 120.488 10.7341 123.032 12.3561 124.922V124.922Z"/>
</mask>
<path fill-rule="evenodd" clip-rule="evenodd" d="M12.3561 124.922C13.6198 126.394 15.9127 126.968 17.8069 126.303C63.606 110.226 110.333 102.832 153.326 103.895C205.688 105.189 251.91 118.956 284.694 144.324C286.282 145.553 288.615 145.781 290.296 144.831V144.831C292.48 143.597 292.655 140.937 290.596 139.338C227.226 90.1178 117.838 83.1258 13.9047 119.634C11.4736 120.488 10.7341 123.032 12.3561 124.922V124.922Z" fill="#F36B9B"/>
<path d="M153.326 103.895L153.407 105.703L153.407 105.703L153.326 103.895ZM290.596 139.338L292.022 138.055L290.596 139.338ZM284.694 144.324L283.272 145.61L284.694 144.324ZM153.245 102.087C109.914 101.016 62.8904 108.467 16.8501 124.63L18.7638 127.977C64.3217 111.984 110.752 104.648 153.407 105.703L153.245 102.087ZM286.117 143.039C252.815 117.269 206.005 103.391 153.245 102.087L153.407 105.703C205.37 106.987 251.006 120.643 283.272 145.61L286.117 143.039ZM14.862 121.308C118.395 84.9404 226.731 92.1245 289.17 140.621L292.022 138.055C227.72 88.1111 117.282 81.3113 12.9474 117.961L14.862 121.308ZM12.9474 117.961C9.28455 119.247 8.18247 123.072 10.615 125.906L14.0972 123.938C13.2857 122.992 13.6626 121.729 14.862 121.308L12.9474 117.961ZM291.598 146.349C294.849 144.511 295.168 140.499 292.022 138.055L289.17 140.621C290.142 141.376 290.111 142.682 288.993 143.313L291.598 146.349ZM283.272 145.61C285.607 147.417 289.072 147.777 291.598 146.349L288.993 143.313C288.157 143.786 286.958 143.689 286.117 143.039L283.272 145.61ZM16.8501 124.63C15.8824 124.969 14.7267 124.671 14.0972 123.938L10.615 125.906C12.5129 128.117 15.943 128.968 18.7638 127.977L16.8501 124.63Z" fill="#F36B9B" mask="url(#path-10-outside-2_1089_139)"/>
<mask id="path-12-outside-3_1089_139" maskUnits="userSpaceOnUse" x="81.2621" y="57.8495" width="223.259" height="187.537" fill="black">
<rect fill="white" x="81.2621" y="57.8495" width="223.259" height="187.537"/>
<path fill-rule="evenodd" clip-rule="evenodd" d="M87.5496 130.565C88.7379 131.949 90.848 132.551 92.7015 132.068C160.702 114.332 238.953 131.627 291.657 177.685C293.218 179.048 295.673 179.352 297.428 178.36V178.36C299.528 177.173 299.775 174.644 297.909 173.01C242.709 124.671 160.654 106.543 89.407 125.199C86.7424 125.897 85.8406 128.573 87.5496 130.565V130.565Z"/>
</mask>
<path fill-rule="evenodd" clip-rule="evenodd" d="M87.5496 130.565C88.7379 131.949 90.848 132.551 92.7015 132.068C160.702 114.332 238.953 131.627 291.657 177.685C293.218 179.048 295.673 179.352 297.428 178.36V178.36C299.528 177.173 299.775 174.644 297.909 173.01C242.709 124.671 160.654 106.543 89.407 125.199C86.7424 125.897 85.8406 128.573 87.5496 130.565V130.565Z" fill="#F36B9B"/>
<path d="M297.909 173.01L299.437 171.811L297.909 173.01ZM293.184 176.485C239.864 129.889 160.711 112.398 91.9267 130.338L93.4762 133.797C160.692 116.266 238.041 133.364 290.131 178.885L293.184 176.485ZM90.184 126.928C160.646 108.478 241.797 126.409 296.381 174.208L299.437 171.811C243.622 122.934 160.663 104.609 88.63 123.47L90.184 126.928ZM88.63 123.47C84.5768 124.532 83.261 128.581 85.8086 131.549L89.2907 129.58C88.4202 128.566 88.908 127.262 90.184 126.928L88.63 123.47ZM298.73 179.878C301.868 178.104 302.273 174.294 299.437 171.811L296.381 174.208C297.277 174.993 297.188 176.242 296.125 176.842L298.73 179.878ZM91.9267 130.338C90.9565 130.591 89.882 130.269 89.2907 129.58L85.8086 131.549C87.5939 133.629 90.7395 134.511 93.4762 133.797L91.9267 130.338ZM290.131 178.885C292.435 180.898 296.09 181.37 298.73 179.878L296.125 176.842C295.257 177.333 294.001 177.198 293.184 176.485L290.131 178.885Z" fill="#F36B9B" mask="url(#path-12-outside-3_1089_139)"/>
</svg>
