<svg width="1920" height="1080" viewBox="0 0 1920 1080" fill="none" xmlns="http://www.w3.org/2000/svg">
<rect width="1920" height="1080" fill="#161616"/>
<path d="M518.009 314.797V291.182H658.722V314.797H601.993V473H574.649V314.797H518.009ZM714.231 392.034V473H687.686V291.182H713.876V358.831H715.563C718.759 351.492 723.642 345.662 730.211 341.342C736.781 337.021 745.363 334.861 755.957 334.861C765.308 334.861 773.476 336.784 780.46 340.631C787.503 344.478 792.948 350.219 796.795 357.854C800.701 365.43 802.654 374.9 802.654 386.263V473H776.11V389.46C776.11 379.457 773.535 371.704 768.386 366.2C763.237 360.636 756.075 357.854 746.901 357.854C740.628 357.854 735.005 359.186 730.034 361.849C725.121 364.513 721.244 368.419 718.404 373.568C715.622 378.658 714.231 384.813 714.231 392.034ZM838.077 473V336.636H863.734V358.298H865.154C867.64 350.959 872.02 345.189 878.294 340.987C884.626 336.725 891.788 334.594 899.778 334.594C901.435 334.594 903.388 334.654 905.637 334.772C907.945 334.89 909.751 335.038 911.053 335.216V360.607C909.987 360.311 908.093 359.985 905.371 359.63C902.648 359.216 899.926 359.009 897.203 359.009C890.93 359.009 885.337 360.34 880.424 363.004C875.571 365.608 871.724 369.248 868.883 373.923C866.042 378.54 864.622 383.807 864.622 389.726V473H838.077ZM987.913 475.752C974.478 475.752 962.907 472.882 953.2 467.141C943.553 461.34 936.096 453.202 930.828 442.727C925.62 432.192 923.016 419.851 923.016 405.706C923.016 391.738 925.62 379.428 930.828 368.774C936.096 358.121 943.435 349.805 952.845 343.827C962.315 337.85 973.383 334.861 986.048 334.861C993.742 334.861 1001.2 336.133 1008.42 338.678C1015.64 341.223 1022.12 345.218 1027.86 350.663C1033.6 356.108 1038.13 363.181 1041.45 371.881C1044.76 380.522 1046.42 391.028 1046.42 403.398V412.808H938.019V392.922H1020.41C1020.41 385.938 1018.99 379.753 1016.14 374.367C1013.3 368.922 1009.31 364.631 1004.16 361.494C999.069 358.357 993.091 356.789 986.226 356.789C978.768 356.789 972.258 358.624 966.695 362.293C961.19 365.904 956.929 370.638 953.911 376.498C950.951 382.298 949.472 388.601 949.472 395.408V410.944C949.472 420.058 951.07 427.812 954.266 434.204C957.521 440.596 962.049 445.479 967.849 448.852C973.649 452.167 980.426 453.824 988.179 453.824C993.21 453.824 997.797 453.114 1001.94 451.693C1006.08 450.214 1009.66 448.024 1012.68 445.124C1015.7 442.223 1018.01 438.643 1019.61 434.381L1044.73 438.909C1042.72 446.307 1039.11 452.788 1033.9 458.352C1028.75 463.856 1022.27 468.147 1014.46 471.224C1006.7 474.243 997.856 475.752 987.913 475.752ZM1115.55 476.018C1106.91 476.018 1099.1 474.42 1092.12 471.224C1085.13 467.969 1079.6 463.264 1075.51 457.109C1071.49 450.953 1069.48 443.407 1069.48 434.47C1069.48 426.776 1070.96 420.443 1073.92 415.472C1076.88 410.5 1080.87 406.564 1085.9 403.664C1090.93 400.764 1096.56 398.574 1102.77 397.094C1108.98 395.615 1115.32 394.49 1121.77 393.721C1129.94 392.774 1136.56 392.004 1141.65 391.413C1146.74 390.762 1150.44 389.726 1152.75 388.305C1155.06 386.885 1156.21 384.577 1156.21 381.381V380.759C1156.21 373.006 1154.02 366.999 1149.64 362.737C1145.32 358.476 1138.87 356.345 1130.29 356.345C1121.35 356.345 1114.31 358.328 1109.16 362.293C1104.07 366.2 1100.55 370.55 1098.6 375.344L1073.65 369.662C1076.61 361.376 1080.93 354.688 1086.61 349.598C1092.35 344.449 1098.95 340.72 1106.41 338.412C1113.87 336.045 1121.71 334.861 1129.94 334.861C1135.38 334.861 1141.15 335.512 1147.25 336.814C1153.4 338.057 1159.14 340.365 1164.47 343.739C1169.86 347.112 1174.27 351.936 1177.7 358.21C1181.13 364.424 1182.85 372.503 1182.85 382.446V473H1156.92V454.357H1155.86C1154.14 457.789 1151.57 461.163 1148.14 464.477C1144.7 467.792 1140.29 470.544 1134.91 472.734C1129.52 474.924 1123.07 476.018 1115.55 476.018ZM1121.32 454.712C1128.66 454.712 1134.94 453.262 1140.15 450.362C1145.41 447.461 1149.41 443.674 1152.13 438.998C1154.91 434.263 1156.3 429.203 1156.3 423.817V406.239C1155.36 407.186 1153.52 408.073 1150.8 408.902C1148.14 409.671 1145.09 410.352 1141.65 410.944C1138.22 411.477 1134.88 411.98 1131.62 412.453C1128.37 412.867 1125.64 413.223 1123.46 413.518C1118.31 414.17 1113.6 415.264 1109.34 416.803C1105.14 418.342 1101.76 420.562 1099.22 423.462C1096.73 426.303 1095.49 430.09 1095.49 434.825C1095.49 441.395 1097.92 446.366 1102.77 449.74C1107.62 453.054 1113.81 454.712 1121.32 454.712ZM1269.25 475.663C1258.24 475.663 1248.42 472.852 1239.78 467.229C1231.2 461.548 1224.45 453.469 1219.54 442.993C1214.68 432.458 1212.26 419.822 1212.26 405.085C1212.26 390.347 1214.71 377.741 1219.62 367.265C1224.6 356.789 1231.4 348.769 1240.04 343.206C1248.68 337.643 1258.48 334.861 1269.43 334.861C1277.89 334.861 1284.7 336.281 1289.85 339.122C1295.06 341.904 1299.08 345.159 1301.92 348.888C1304.82 352.616 1307.07 355.901 1308.67 358.742H1310.27V291.182H1336.81V473H1310.89V451.782H1308.67C1307.07 454.682 1304.76 457.996 1301.74 461.725C1298.79 465.454 1294.7 468.709 1289.49 471.491C1284.28 474.272 1277.54 475.663 1269.25 475.663ZM1275.11 453.025C1282.75 453.025 1289.2 451.013 1294.46 446.988C1299.79 442.904 1303.82 437.252 1306.54 430.031C1309.32 422.811 1310.71 414.406 1310.71 404.818C1310.71 395.348 1309.35 387.062 1306.63 379.96C1303.9 372.858 1299.91 367.324 1294.64 363.359C1289.37 359.393 1282.86 357.411 1275.11 357.411C1267.12 357.411 1260.46 359.482 1255.14 363.625C1249.81 367.768 1245.78 373.42 1243.06 380.582C1240.4 387.743 1239.07 395.822 1239.07 404.818C1239.07 413.933 1240.43 422.13 1243.15 429.41C1245.87 436.69 1249.9 442.46 1255.22 446.722C1260.61 450.924 1267.24 453.025 1275.11 453.025ZM1433.47 475.752C1420.03 475.752 1408.46 472.882 1398.76 467.141C1389.11 461.34 1381.65 453.202 1376.38 442.727C1371.18 432.192 1368.57 419.851 1368.57 405.706C1368.57 391.738 1371.18 379.428 1376.38 368.774C1381.65 358.121 1388.99 349.805 1398.4 343.827C1407.87 337.85 1418.94 334.861 1431.6 334.861C1439.3 334.861 1446.76 336.133 1453.98 338.678C1461.2 341.223 1467.68 345.218 1473.42 350.663C1479.16 356.108 1483.69 363.181 1487 371.881C1490.32 380.522 1491.97 391.028 1491.97 403.398V412.808H1383.58V392.922H1465.96C1465.96 385.938 1464.54 379.753 1461.7 374.367C1458.86 368.922 1454.86 364.631 1449.72 361.494C1444.63 358.357 1438.65 356.789 1431.78 356.789C1424.33 356.789 1417.81 358.624 1412.25 362.293C1406.75 365.904 1402.49 370.638 1399.47 376.498C1396.51 382.298 1395.03 388.601 1395.03 395.408V410.944C1395.03 420.058 1396.63 427.812 1399.82 434.204C1403.08 440.596 1407.61 445.479 1413.41 448.852C1419.21 452.167 1425.98 453.824 1433.74 453.824C1438.77 453.824 1443.35 453.114 1447.5 451.693C1451.64 450.214 1455.22 448.024 1458.24 445.124C1461.26 442.223 1463.57 438.643 1465.16 434.381L1490.29 438.909C1488.28 446.307 1484.66 452.788 1479.46 458.352C1474.31 463.856 1467.83 468.147 1460.01 471.224C1452.26 474.243 1443.41 475.752 1433.47 475.752ZM1521.43 473V336.636H1547.08V358.298H1548.5C1550.99 350.959 1555.37 345.189 1561.64 340.987C1567.98 336.725 1575.14 334.594 1583.13 334.594C1584.78 334.594 1586.74 334.654 1588.99 334.772C1591.3 334.89 1593.1 335.038 1594.4 335.216V360.607C1593.34 360.311 1591.44 359.985 1588.72 359.63C1586 359.216 1583.28 359.009 1580.55 359.009C1574.28 359.009 1568.69 360.34 1563.77 363.004C1558.92 365.608 1555.07 369.248 1552.23 373.923C1549.39 378.54 1547.97 383.807 1547.97 389.726V473H1521.43Z" fill="white"/>
<rect x="676.687" y="491" width="659" height="8" fill="#F36B9B"/>
<rect x="725.687" y="508" width="165" height="8" fill="#F03C7B"/>
<rect x="1002.69" y="508" width="140" height="8" fill="#F03C7B"/>
<rect x="1170.69" y="508" width="165" height="8" fill="#F03C7B"/>
<rect x="447.687" y="491" width="206" height="8" fill="#F36B9B"/>
<rect x="447.687" y="508" width="206" height="8" fill="#F03C7B"/>
<mask id="mask0_1090_261" style="mask-type:alpha" maskUnits="userSpaceOnUse" x="412" y="330" width="116" height="194">
<path d="M477.187 524L412.687 330.5L527.687 350L497.687 504L477.187 524Z" fill="#D9D9D9"/>
</mask>
<g mask="url(#mask0_1090_261)">
<circle cx="441.687" cy="427" r="89" fill="#F36B9B"/>
</g>
<mask id="mask1_1090_261" style="mask-type:alpha" maskUnits="userSpaceOnUse" x="320" y="338" width="156" height="212">
<rect x="320" y="370.852" width="99.2006" height="188.826" transform="rotate(-18.9328 320 370.852)" fill="#D9D9D9"/>
</mask>
<g mask="url(#mask1_1090_261)">
<circle cx="441.688" cy="427.011" r="89" fill="#F0417E"/>
</g>
<mask id="mask2_1090_261" style="mask-type:alpha" maskUnits="userSpaceOnUse" x="493" y="382" width="82" height="135">
<rect x="520.441" y="382" width="55" height="125.954" transform="rotate(12.3958 520.441 382)" fill="#D9D9D9"/>
</mask>
<g mask="url(#mask2_1090_261)">
<circle cx="441.687" cy="427" r="89" fill="#F9B3CB"/>
</g>
<rect x="520.819" y="339.18" width="15.626" height="147.369" rx="3" transform="rotate(11.9552 520.819 339.18)" fill="white"/>
<rect x="498.409" y="444.835" width="15.7881" height="39.0549" transform="rotate(11.9552 498.409 444.835)" fill="white"/>
<path d="M492.18 498.644L490.515 484.586C490.273 482.547 492.106 480.873 494.115 481.298L503.001 483.18C505.01 483.605 506.008 485.878 504.96 487.645L497.74 499.821C496.277 502.289 492.518 501.493 492.18 498.644Z" fill="white"/>
<rect x="387.668" y="305.938" width="18.8048" height="204.314" rx="3" transform="rotate(-20.349 387.668 305.938)" fill="white"/>
<rect x="442.198" y="453.102" width="19" height="47" transform="rotate(-20.349 442.198 453.102)" fill="white"/>
<path d="M471.605 513.24L459.198 497.952C457.904 496.357 458.558 493.963 460.484 493.249L472.328 488.856C474.254 488.142 476.312 489.53 476.37 491.583L476.933 511.264C477.015 514.131 473.412 515.468 471.605 513.24Z" fill="white"/>
<path d="M348.283 685V594.091H380.688C387.76 594.091 393.62 595.378 398.266 597.953C402.912 600.527 406.389 604.049 408.697 608.517C411.005 612.956 412.16 617.958 412.16 623.521C412.16 629.114 410.991 634.145 408.653 638.613C406.345 643.052 402.853 646.574 398.177 649.178C393.531 651.752 387.686 653.04 380.643 653.04H358.36V641.41H379.4C383.869 641.41 387.494 640.64 390.276 639.102C393.057 637.533 395.099 635.402 396.401 632.71C397.703 630.017 398.354 626.954 398.354 623.521C398.354 620.088 397.703 617.04 396.401 614.377C395.099 611.713 393.043 609.627 390.231 608.118C387.45 606.609 383.78 605.854 379.223 605.854H362V685H348.283ZM427.174 685V616.818H440.003V627.649H440.713C441.956 623.98 444.146 621.094 447.282 618.993C450.449 616.863 454.03 615.797 458.025 615.797C458.853 615.797 459.83 615.827 460.954 615.886C462.108 615.945 463.011 616.019 463.662 616.108V628.803C463.129 628.655 462.182 628.493 460.821 628.315C459.46 628.108 458.099 628.004 456.737 628.004C453.601 628.004 450.804 628.67 448.348 630.002C445.921 631.304 443.998 633.124 442.577 635.462C441.157 637.77 440.447 640.404 440.447 643.363V685H427.174ZM501.426 686.376C495.034 686.376 489.456 684.911 484.691 681.982C479.927 679.052 476.228 674.953 473.594 669.686C470.96 664.418 469.644 658.263 469.644 651.22C469.644 644.147 470.96 637.962 473.594 632.665C476.228 627.368 479.927 623.255 484.691 620.325C489.456 617.395 495.034 615.93 501.426 615.93C507.818 615.93 513.397 617.395 518.161 620.325C522.925 623.255 526.624 627.368 529.258 632.665C531.892 637.962 533.209 644.147 533.209 651.22C533.209 658.263 531.892 664.418 529.258 669.686C526.624 674.953 522.925 679.052 518.161 681.982C513.397 684.911 507.818 686.376 501.426 686.376ZM501.471 675.234C505.614 675.234 509.046 674.139 511.769 671.95C514.491 669.76 516.504 666.845 517.806 663.205C519.138 659.565 519.803 655.555 519.803 651.175C519.803 646.825 519.138 642.83 517.806 639.19C516.504 635.521 514.491 632.576 511.769 630.357C509.046 628.137 505.614 627.028 501.471 627.028C497.298 627.028 493.836 628.137 491.084 630.357C488.361 632.576 486.334 635.521 485.002 639.19C483.7 642.83 483.049 646.825 483.049 651.175C483.049 655.555 483.7 659.565 485.002 663.205C486.334 666.845 488.361 669.76 491.084 671.95C493.836 674.139 497.298 675.234 501.471 675.234ZM548.024 685V616.818H560.763V627.915H561.607C563.027 624.157 565.35 621.228 568.576 619.126C571.802 616.996 575.663 615.93 580.162 615.93C584.719 615.93 588.536 616.996 591.614 619.126C594.721 621.257 597.015 624.187 598.494 627.915H599.205C600.832 624.276 603.422 621.375 606.973 619.215C610.524 617.025 614.756 615.93 619.668 615.93C625.853 615.93 630.898 617.869 634.805 621.745C638.741 625.622 640.708 631.467 640.708 639.279V685H627.436V640.522C627.436 635.906 626.178 632.562 623.663 630.49C621.148 628.419 618.144 627.383 614.652 627.383C610.331 627.383 606.973 628.714 604.576 631.378C602.179 634.012 600.98 637.4 600.98 641.543V685H587.752V639.679C587.752 635.98 586.598 633.005 584.29 630.756C581.982 628.507 578.978 627.383 575.279 627.383C572.763 627.383 570.44 628.049 568.31 629.38C566.209 630.682 564.507 632.502 563.205 634.84C561.932 637.178 561.296 639.886 561.296 642.963V685H548.024ZM658.497 685V616.818H671.77V685H658.497ZM665.2 606.298C662.892 606.298 660.909 605.529 659.252 603.99C657.624 602.421 656.811 600.557 656.811 598.397C656.811 596.207 657.624 594.342 659.252 592.804C660.909 591.235 662.892 590.451 665.2 590.451C667.508 590.451 669.476 591.235 671.104 592.804C672.761 594.342 673.59 596.207 673.59 598.397C673.59 600.557 672.761 602.421 671.104 603.99C669.476 605.529 667.508 606.298 665.2 606.298ZM740.717 633.464L728.688 635.595C728.185 634.056 727.386 632.591 726.291 631.2C725.225 629.809 723.775 628.67 721.941 627.782C720.106 626.895 717.813 626.451 715.06 626.451C711.302 626.451 708.165 627.294 705.65 628.981C703.134 630.638 701.877 632.783 701.877 635.417C701.877 637.696 702.72 639.531 704.407 640.922C706.094 642.312 708.816 643.452 712.575 644.339L723.406 646.825C729.679 648.275 734.355 650.51 737.433 653.528C740.51 656.547 742.049 660.468 742.049 665.291C742.049 669.375 740.865 673.015 738.498 676.211C736.16 679.377 732.89 681.863 728.688 683.668C724.515 685.473 719.677 686.376 714.173 686.376C706.538 686.376 700.308 684.748 695.485 681.493C690.661 678.208 687.702 673.548 686.607 667.511L699.435 665.558C700.234 668.902 701.877 671.432 704.363 673.148C706.848 674.835 710.089 675.678 714.084 675.678C718.434 675.678 721.911 674.776 724.515 672.971C727.119 671.136 728.422 668.902 728.422 666.268C728.422 664.137 727.623 662.347 726.025 660.897C724.456 659.447 722.044 658.352 718.789 657.612L707.248 655.082C700.885 653.632 696.18 651.323 693.132 648.157C690.114 644.991 688.604 640.981 688.604 636.127C688.604 632.103 689.729 628.581 691.978 625.563C694.227 622.544 697.334 620.192 701.3 618.505C705.265 616.789 709.808 615.93 714.927 615.93C722.296 615.93 728.096 617.528 732.328 620.724C736.56 623.891 739.356 628.137 740.717 633.464ZM786.028 686.376C779.31 686.376 773.525 684.941 768.671 682.07C763.848 679.17 760.119 675.101 757.485 669.863C754.881 664.596 753.579 658.426 753.579 651.353C753.579 644.369 754.881 638.214 757.485 632.887C760.119 627.56 763.789 623.403 768.494 620.414C773.229 617.425 778.763 615.93 785.095 615.93C788.943 615.93 792.671 616.567 796.282 617.839C799.892 619.112 803.132 621.109 806.003 623.832C808.873 626.554 811.137 630.091 812.794 634.441C814.452 638.761 815.28 644.014 815.28 650.199V654.904H761.081V644.961H802.274C802.274 641.469 801.564 638.377 800.143 635.684C798.723 632.961 796.725 630.816 794.151 629.247C791.606 627.679 788.617 626.895 785.184 626.895C781.456 626.895 778.2 627.812 775.419 629.647C772.666 631.452 770.536 633.819 769.027 636.749C767.547 639.649 766.807 642.801 766.807 646.204V653.972C766.807 658.529 767.606 662.406 769.204 665.602C770.832 668.798 773.096 671.239 775.996 672.926C778.896 674.583 782.284 675.412 786.161 675.412C788.676 675.412 790.97 675.057 793.041 674.347C795.113 673.607 796.903 672.512 798.412 671.062C799.921 669.612 801.076 667.821 801.875 665.691L814.437 667.955C813.431 671.654 811.625 674.894 809.021 677.676C806.447 680.428 803.206 682.573 799.3 684.112C795.423 685.621 790.999 686.376 786.028 686.376ZM1272.95 685H1258.4L1291.11 594.091H1306.96L1339.67 685H1325.11L1299.41 610.604H1298.7L1272.95 685ZM1275.4 649.4H1322.63V660.941H1275.4V649.4ZM1379.36 686.376C1372.76 686.376 1367.07 684.882 1362.31 681.893C1357.58 678.874 1353.94 674.717 1351.39 669.419C1348.85 664.122 1347.57 658.056 1347.57 651.22C1347.57 644.295 1348.88 638.184 1351.48 632.887C1354.08 627.56 1357.75 623.403 1362.49 620.414C1367.22 617.425 1372.8 615.93 1379.22 615.93C1384.4 615.93 1389.02 616.892 1393.07 618.816C1397.13 620.71 1400.4 623.373 1402.88 626.806C1405.4 630.239 1406.89 634.248 1407.37 638.835H1394.45C1393.74 635.639 1392.11 632.887 1389.57 630.579C1387.05 628.271 1383.68 627.116 1379.44 627.116C1375.75 627.116 1372.51 628.093 1369.72 630.046C1366.97 631.97 1364.83 634.722 1363.29 638.303C1361.75 641.854 1360.98 646.056 1360.98 650.909C1360.98 655.881 1361.73 660.172 1363.24 663.782C1364.75 667.392 1366.88 670.189 1369.63 672.172C1372.42 674.154 1375.69 675.146 1379.44 675.146C1381.96 675.146 1384.24 674.687 1386.28 673.77C1388.35 672.823 1390.08 671.476 1391.47 669.73C1392.89 667.984 1393.89 665.883 1394.45 663.427H1407.37C1406.89 667.836 1405.46 671.772 1403.06 675.234C1400.66 678.697 1397.45 681.419 1393.43 683.402C1389.43 685.385 1384.74 686.376 1379.36 686.376ZM1453.39 616.818V627.472H1416.14V616.818H1453.39ZM1426.13 600.483H1439.4V664.98C1439.4 667.555 1439.79 669.493 1440.56 670.795C1441.33 672.068 1442.32 672.941 1443.53 673.414C1444.77 673.858 1446.12 674.08 1447.57 674.08C1448.64 674.08 1449.57 674.006 1450.37 673.858C1451.17 673.71 1451.79 673.592 1452.23 673.503L1454.63 684.467C1453.86 684.763 1452.76 685.059 1451.34 685.355C1449.92 685.681 1448.15 685.858 1446.02 685.888C1442.53 685.947 1439.27 685.326 1436.25 684.023C1433.23 682.721 1430.79 680.709 1428.93 677.987C1427.06 675.264 1426.13 671.846 1426.13 667.733V600.483ZM1496.06 686.376C1489.66 686.376 1484.08 684.911 1479.32 681.982C1474.56 679.052 1470.86 674.953 1468.22 669.686C1465.59 664.418 1464.27 658.263 1464.27 651.22C1464.27 644.147 1465.59 637.962 1468.22 632.665C1470.86 627.368 1474.56 623.255 1479.32 620.325C1484.08 617.395 1489.66 615.93 1496.06 615.93C1502.45 615.93 1508.03 617.395 1512.79 620.325C1517.55 623.255 1521.25 627.368 1523.89 632.665C1526.52 637.962 1527.84 644.147 1527.84 651.22C1527.84 658.263 1526.52 664.418 1523.89 669.686C1521.25 674.953 1517.55 679.052 1512.79 681.982C1508.03 684.911 1502.45 686.376 1496.06 686.376ZM1496.1 675.234C1500.24 675.234 1503.68 674.139 1506.4 671.95C1509.12 669.76 1511.13 666.845 1512.43 663.205C1513.77 659.565 1514.43 655.555 1514.43 651.175C1514.43 646.825 1513.77 642.83 1512.43 639.19C1511.13 635.521 1509.12 632.576 1506.4 630.357C1503.68 628.137 1500.24 627.028 1496.1 627.028C1491.93 627.028 1488.46 628.137 1485.71 630.357C1482.99 632.576 1480.96 635.521 1479.63 639.19C1478.33 642.83 1477.68 646.825 1477.68 651.175C1477.68 655.555 1478.33 659.565 1479.63 663.205C1480.96 666.845 1482.99 669.76 1485.71 671.95C1488.46 674.139 1491.93 675.234 1496.1 675.234ZM1542.65 685V616.818H1555.48V627.649H1556.19C1557.43 623.98 1559.62 621.094 1562.76 618.993C1565.93 616.863 1569.51 615.797 1573.5 615.797C1574.33 615.797 1575.31 615.827 1576.43 615.886C1577.59 615.945 1578.49 616.019 1579.14 616.108V628.803C1578.61 628.655 1577.66 628.493 1576.3 628.315C1574.94 628.108 1573.58 628.004 1572.22 628.004C1569.08 628.004 1566.28 628.67 1563.83 630.002C1561.4 631.304 1559.48 633.124 1558.06 635.462C1556.64 637.77 1555.93 640.404 1555.93 643.363V685H1542.65Z" fill="#F0417E"/>
<path d="M864.153 685V594.091H877.425V627.871H878.224C878.993 626.451 880.103 624.808 881.553 622.944C883.003 621.08 885.016 619.452 887.59 618.061C890.165 616.641 893.568 615.93 897.8 615.93C903.304 615.93 908.216 617.321 912.537 620.103C916.857 622.885 920.246 626.895 922.702 632.132C925.188 637.37 926.431 643.674 926.431 651.042C926.431 658.411 925.203 664.729 922.746 669.996C920.29 675.234 916.917 679.274 912.626 682.115C908.335 684.926 903.437 686.332 897.933 686.332C893.79 686.332 890.401 685.636 887.768 684.245C885.164 682.855 883.122 681.227 881.642 679.363C880.162 677.498 879.023 675.841 878.224 674.391H877.114V685H864.153ZM877.159 650.909C877.159 655.703 877.854 659.905 879.245 663.516C880.636 667.126 882.648 669.952 885.282 671.994C887.916 674.006 891.141 675.012 894.959 675.012C898.924 675.012 902.239 673.962 904.902 671.861C907.565 669.73 909.578 666.845 910.939 663.205C912.33 659.565 913.025 655.466 913.025 650.909C913.025 646.411 912.344 642.372 910.983 638.791C909.652 635.21 907.639 632.384 904.946 630.312C902.283 628.241 898.954 627.205 894.959 627.205C891.112 627.205 887.856 628.197 885.193 630.179C882.559 632.162 880.562 634.929 879.201 638.48C877.839 642.031 877.159 646.174 877.159 650.909ZM961.176 686.509C956.856 686.509 952.95 685.71 949.458 684.112C945.966 682.485 943.199 680.132 941.157 677.054C939.144 673.977 938.138 670.204 938.138 665.735C938.138 661.888 938.878 658.722 940.358 656.236C941.837 653.75 943.835 651.782 946.35 650.332C948.866 648.882 951.677 647.787 954.784 647.047C957.892 646.307 961.058 645.745 964.284 645.36C968.367 644.887 971.682 644.502 974.227 644.206C976.772 643.881 978.621 643.363 979.775 642.653C980.93 641.942 981.507 640.788 981.507 639.19V638.88C981.507 635.003 980.412 631.999 978.222 629.869C976.061 627.738 972.836 626.673 968.545 626.673C964.076 626.673 960.555 627.664 957.98 629.647C955.435 631.6 953.675 633.775 952.698 636.172L940.225 633.331C941.704 629.188 943.865 625.844 946.705 623.299C949.576 620.724 952.876 618.86 956.604 617.706C960.333 616.522 964.254 615.93 968.367 615.93C971.09 615.93 973.975 616.256 977.023 616.907C980.101 617.528 982.971 618.683 985.635 620.369C988.328 622.056 990.532 624.468 992.249 627.605C993.965 630.712 994.823 634.751 994.823 639.723V685H981.862V675.678H981.329C980.471 677.395 979.184 679.081 977.467 680.739C975.751 682.396 973.546 683.772 970.853 684.867C968.16 685.962 964.935 686.509 961.176 686.509ZM964.062 675.856C967.731 675.856 970.868 675.131 973.472 673.681C976.106 672.231 978.103 670.337 979.465 667.999C980.856 665.632 981.551 663.101 981.551 660.408V651.619C981.077 652.093 980.16 652.537 978.799 652.951C977.467 653.336 975.943 653.676 974.227 653.972C972.51 654.238 970.838 654.49 969.211 654.727C967.583 654.934 966.222 655.111 965.127 655.259C962.552 655.585 960.2 656.132 958.069 656.902C955.968 657.671 954.281 658.781 953.009 660.231C951.766 661.651 951.144 663.545 951.144 665.913C951.144 669.197 952.358 671.683 954.784 673.37C957.211 675.027 960.303 675.856 964.062 675.856ZM1063.59 633.464L1051.56 635.595C1051.06 634.056 1050.26 632.591 1049.17 631.2C1048.1 629.809 1046.65 628.67 1044.82 627.782C1042.98 626.895 1040.69 626.451 1037.94 626.451C1034.18 626.451 1031.04 627.294 1028.53 628.981C1026.01 630.638 1024.75 632.783 1024.75 635.417C1024.75 637.696 1025.6 639.531 1027.28 640.922C1028.97 642.312 1031.69 643.452 1035.45 644.339L1046.28 646.825C1052.56 648.275 1057.23 650.51 1060.31 653.528C1063.39 656.547 1064.92 660.468 1064.92 665.291C1064.92 669.375 1063.74 673.015 1061.37 676.211C1059.04 679.377 1055.77 681.863 1051.56 683.668C1047.39 685.473 1042.55 686.376 1037.05 686.376C1029.41 686.376 1023.18 684.748 1018.36 681.493C1013.54 678.208 1010.58 673.548 1009.48 667.511L1022.31 665.558C1023.11 668.902 1024.75 671.432 1027.24 673.148C1029.72 674.835 1032.96 675.678 1036.96 675.678C1041.31 675.678 1044.79 674.776 1047.39 672.971C1050 671.136 1051.3 668.902 1051.3 666.268C1051.3 664.137 1050.5 662.347 1048.9 660.897C1047.33 659.447 1044.92 658.352 1041.67 657.612L1030.12 655.082C1023.76 653.632 1019.06 651.323 1016.01 648.157C1012.99 644.991 1011.48 640.981 1011.48 636.127C1011.48 632.103 1012.6 628.581 1014.85 625.563C1017.1 622.544 1020.21 620.192 1024.18 618.505C1028.14 616.789 1032.68 615.93 1037.8 615.93C1045.17 615.93 1050.97 617.528 1055.2 620.724C1059.44 623.891 1062.23 628.137 1063.59 633.464ZM1108.9 686.376C1102.19 686.376 1096.4 684.941 1091.55 682.07C1086.72 679.17 1083 675.101 1080.36 669.863C1077.76 664.596 1076.46 658.426 1076.46 651.353C1076.46 644.369 1077.76 638.214 1080.36 632.887C1083 627.56 1086.66 623.403 1091.37 620.414C1096.1 617.425 1101.64 615.93 1107.97 615.93C1111.82 615.93 1115.55 616.567 1119.16 617.839C1122.77 619.112 1126.01 621.109 1128.88 623.832C1131.75 626.554 1134.01 630.091 1135.67 634.441C1137.33 638.761 1138.16 644.014 1138.16 650.199V654.904H1083.96V644.961H1125.15C1125.15 641.469 1124.44 638.377 1123.02 635.684C1121.6 632.961 1119.6 630.816 1117.03 629.247C1114.48 627.679 1111.49 626.895 1108.06 626.895C1104.33 626.895 1101.08 627.812 1098.29 629.647C1095.54 631.452 1093.41 633.819 1091.9 636.749C1090.42 639.649 1089.68 642.801 1089.68 646.204V653.972C1089.68 658.529 1090.48 662.406 1092.08 665.602C1093.71 668.798 1095.97 671.239 1098.87 672.926C1101.77 674.583 1105.16 675.412 1109.04 675.412C1111.55 675.412 1113.85 675.057 1115.92 674.347C1117.99 673.607 1119.78 672.512 1121.29 671.062C1122.8 669.612 1123.95 667.821 1124.75 665.691L1137.31 667.955C1136.31 671.654 1134.5 674.894 1131.9 677.676C1129.32 680.428 1126.08 682.573 1122.18 684.112C1118.3 685.621 1113.88 686.376 1108.9 686.376ZM1178.41 686.332C1172.9 686.332 1167.99 684.926 1163.67 682.115C1159.38 679.274 1156 675.234 1153.55 669.996C1151.12 664.729 1149.91 658.411 1149.91 651.042C1149.91 643.674 1151.14 637.37 1153.59 632.132C1156.08 626.895 1159.48 622.885 1163.8 620.103C1168.12 617.321 1173.02 615.93 1178.49 615.93C1182.73 615.93 1186.13 616.641 1188.7 618.061C1191.31 619.452 1193.32 621.08 1194.74 622.944C1196.19 624.808 1197.32 626.451 1198.11 627.871H1198.91V594.091H1212.19V685H1199.22V674.391H1198.11C1197.32 675.841 1196.16 677.498 1194.65 679.363C1193.17 681.227 1191.13 682.855 1188.53 684.245C1185.92 685.636 1182.55 686.332 1178.41 686.332ZM1181.34 675.012C1185.15 675.012 1188.38 674.006 1191.01 671.994C1193.68 669.952 1195.69 667.126 1197.05 663.516C1198.44 659.905 1199.14 655.703 1199.14 650.909C1199.14 646.174 1198.46 642.031 1197.09 638.48C1195.73 634.929 1193.74 632.162 1191.1 630.179C1188.47 628.197 1185.21 627.205 1181.34 627.205C1177.34 627.205 1174.01 628.241 1171.35 630.312C1168.68 632.384 1166.67 635.21 1165.31 638.791C1163.98 642.372 1163.31 646.411 1163.31 650.909C1163.31 655.466 1163.99 659.565 1165.36 663.205C1166.72 666.845 1168.73 669.73 1171.39 671.861C1174.09 673.962 1177.4 675.012 1181.34 675.012ZM721.253 836L701.189 767.818H714.905L728.266 817.889H728.932L742.338 767.818H756.054L769.371 817.667H770.036L783.309 767.818H797.025L777.006 836H763.467L749.617 786.772H748.596L734.747 836H721.253ZM809.62 836V767.818H822.449V778.649H823.159C824.402 774.98 826.592 772.094 829.729 769.993C832.895 767.863 836.476 766.797 840.471 766.797C841.3 766.797 842.276 766.827 843.401 766.886C844.555 766.945 845.457 767.019 846.108 767.108V779.803C845.576 779.655 844.629 779.493 843.267 779.315C841.906 779.108 840.545 779.004 839.184 779.004C836.047 779.004 833.25 779.67 830.794 781.002C828.368 782.304 826.444 784.124 825.024 786.462C823.603 788.77 822.893 791.404 822.893 794.363V836H809.62ZM876.826 837.509C872.505 837.509 868.599 836.71 865.107 835.112C861.615 833.485 858.848 831.132 856.806 828.054C854.794 824.977 853.788 821.204 853.788 816.735C853.788 812.888 854.528 809.722 856.007 807.236C857.487 804.75 859.484 802.782 862 801.332C864.515 799.882 867.326 798.787 870.434 798.047C873.541 797.307 876.707 796.745 879.933 796.36C884.017 795.887 887.331 795.502 889.876 795.206C892.421 794.881 894.271 794.363 895.425 793.653C896.579 792.942 897.156 791.788 897.156 790.19V789.88C897.156 786.003 896.061 782.999 893.871 780.869C891.711 778.738 888.485 777.673 884.194 777.673C879.726 777.673 876.204 778.664 873.63 780.647C871.085 782.6 869.324 784.775 868.347 787.172L855.874 784.331C857.354 780.188 859.514 776.844 862.355 774.299C865.225 771.724 868.525 769.86 872.254 768.706C875.982 767.522 879.903 766.93 884.017 766.93C886.739 766.93 889.625 767.256 892.673 767.907C895.75 768.528 898.621 769.683 901.284 771.369C903.977 773.056 906.182 775.468 907.898 778.605C909.615 781.712 910.473 785.751 910.473 790.723V836H897.511V826.678H896.978C896.12 828.395 894.833 830.081 893.117 831.739C891.4 833.396 889.196 834.772 886.503 835.867C883.81 836.962 880.584 837.509 876.826 837.509ZM879.711 826.856C883.381 826.856 886.517 826.131 889.122 824.681C891.755 823.231 893.753 821.337 895.114 818.999C896.505 816.632 897.2 814.101 897.2 811.408V802.619C896.727 803.093 895.81 803.537 894.448 803.951C893.117 804.336 891.593 804.676 889.876 804.972C888.16 805.238 886.488 805.49 884.86 805.727C883.233 805.934 881.871 806.111 880.776 806.259C878.202 806.585 875.849 807.132 873.718 807.902C871.617 808.671 869.931 809.781 868.658 811.231C867.415 812.651 866.794 814.545 866.794 816.913C866.794 820.197 868.007 822.683 870.434 824.37C872.86 826.027 875.953 826.856 879.711 826.856ZM928.151 861.568V767.818H941.112V778.871H942.222C942.992 777.451 944.101 775.808 945.551 773.944C947.001 772.08 949.014 770.452 951.588 769.061C954.163 767.641 957.566 766.93 961.798 766.93C967.302 766.93 972.214 768.321 976.535 771.103C980.856 773.885 984.244 777.895 986.7 783.132C989.186 788.37 990.429 794.674 990.429 802.042C990.429 809.411 989.201 815.729 986.744 820.996C984.288 826.234 980.915 830.274 976.624 833.115C972.333 835.926 967.435 837.332 961.931 837.332C957.788 837.332 954.4 836.636 951.766 835.245C949.162 833.855 947.12 832.227 945.64 830.363C944.16 828.498 943.021 826.841 942.222 825.391H941.423V861.568H928.151ZM941.157 801.909C941.157 806.703 941.852 810.905 943.243 814.516C944.634 818.126 946.646 820.952 949.28 822.994C951.914 825.006 955.139 826.012 958.957 826.012C962.922 826.012 966.237 824.962 968.9 822.861C971.563 820.73 973.576 817.845 974.937 814.205C976.328 810.565 977.023 806.466 977.023 801.909C977.023 797.411 976.343 793.372 974.981 789.791C973.65 786.21 971.637 783.384 968.944 781.312C966.281 779.241 962.952 778.205 958.957 778.205C955.11 778.205 951.855 779.197 949.191 781.179C946.557 783.162 944.56 785.929 943.199 789.48C941.837 793.031 941.157 797.174 941.157 801.909ZM1005.3 861.568V767.818H1018.26V778.871H1019.37C1020.14 777.451 1021.25 775.808 1022.7 773.944C1024.15 772.08 1026.16 770.452 1028.74 769.061C1031.31 767.641 1034.71 766.93 1038.95 766.93C1044.45 766.93 1049.36 768.321 1053.68 771.103C1058 773.885 1061.39 777.895 1063.85 783.132C1066.33 788.37 1067.58 794.674 1067.58 802.042C1067.58 809.411 1066.35 815.729 1063.89 820.996C1061.44 826.234 1058.06 830.274 1053.77 833.115C1049.48 835.926 1044.58 837.332 1039.08 837.332C1034.94 837.332 1031.55 836.636 1028.91 835.245C1026.31 833.855 1024.27 832.227 1022.79 830.363C1021.31 828.498 1020.17 826.841 1019.37 825.391H1018.57V861.568H1005.3ZM1018.31 801.909C1018.31 806.703 1019 810.905 1020.39 814.516C1021.78 818.126 1023.79 820.952 1026.43 822.994C1029.06 825.006 1032.29 826.012 1036.11 826.012C1040.07 826.012 1043.39 824.962 1046.05 822.861C1048.71 820.73 1050.72 817.845 1052.09 814.205C1053.48 810.565 1054.17 806.466 1054.17 801.909C1054.17 797.411 1053.49 793.372 1052.13 789.791C1050.8 786.21 1048.79 783.384 1046.09 781.312C1043.43 779.241 1040.1 778.205 1036.11 778.205C1032.26 778.205 1029 779.197 1026.34 781.179C1023.71 783.162 1021.71 785.929 1020.35 789.48C1018.99 793.031 1018.31 797.174 1018.31 801.909ZM1111.83 837.376C1105.12 837.376 1099.33 835.941 1094.48 833.07C1089.65 830.17 1085.92 826.101 1083.29 820.863C1080.69 815.596 1079.38 809.426 1079.38 802.353C1079.38 795.369 1080.69 789.214 1083.29 783.887C1085.92 778.56 1089.59 774.403 1094.3 771.414C1099.03 768.425 1104.57 766.93 1110.9 766.93C1114.75 766.93 1118.48 767.567 1122.09 768.839C1125.7 770.112 1128.94 772.109 1131.81 774.832C1134.68 777.554 1136.94 781.091 1138.6 785.441C1140.26 789.761 1141.09 795.014 1141.09 801.199V805.904H1086.89V795.961H1128.08C1128.08 792.469 1127.37 789.377 1125.95 786.684C1124.53 783.961 1122.53 781.816 1119.96 780.247C1117.41 778.679 1114.42 777.895 1110.99 777.895C1107.26 777.895 1104.01 778.812 1101.22 780.647C1098.47 782.452 1096.34 784.819 1094.83 787.749C1093.35 790.649 1092.61 793.801 1092.61 797.204V804.972C1092.61 809.529 1093.41 813.406 1095.01 816.602C1096.64 819.798 1098.9 822.239 1101.8 823.926C1104.7 825.583 1108.09 826.412 1111.97 826.412C1114.48 826.412 1116.78 826.057 1118.85 825.347C1120.92 824.607 1122.71 823.512 1124.22 822.062C1125.73 820.612 1126.88 818.821 1127.68 816.691L1140.24 818.955C1139.24 822.654 1137.43 825.894 1134.83 828.676C1132.25 831.428 1129.01 833.573 1125.11 835.112C1121.23 836.621 1116.8 837.376 1111.83 837.376ZM1155.81 836V767.818H1168.64V778.649H1169.35C1170.59 774.98 1172.78 772.094 1175.92 769.993C1179.09 767.863 1182.67 766.797 1186.66 766.797C1187.49 766.797 1188.47 766.827 1189.59 766.886C1190.75 766.945 1191.65 767.019 1192.3 767.108V779.803C1191.77 779.655 1190.82 779.493 1189.46 779.315C1188.1 779.108 1186.74 779.004 1185.38 779.004C1182.24 779.004 1179.44 779.67 1176.99 781.002C1174.56 782.304 1172.64 784.124 1171.21 786.462C1169.79 788.77 1169.08 791.404 1169.08 794.363V836H1155.81ZM1204.72 836.843C1202.29 836.843 1200.2 835.985 1198.46 834.269C1196.71 832.523 1195.84 830.422 1195.84 827.966C1195.84 825.539 1196.71 823.467 1198.46 821.751C1200.2 820.005 1202.29 819.132 1204.72 819.132C1207.14 819.132 1209.23 820.005 1210.98 821.751C1212.72 823.467 1213.6 825.539 1213.6 827.966C1213.6 829.593 1213.18 831.088 1212.35 832.449C1211.55 833.781 1210.49 834.846 1209.16 835.645C1207.82 836.444 1206.35 836.843 1204.72 836.843Z" fill="white"/>
</svg>
