<svg width="920" height="618" viewBox="0 0 920 618" fill="none" xmlns="http://www.w3.org/2000/svg">
<path d="M856.791 49.5857C933.03 108.066 932.311 233.627 894.191 346.575C856.071 459.523 780.551 559.284 671.946 598.271C564.06 637.258 423.089 614.324 298.66 565.59C174.231 517.43 67.0646 442.896 23.1909 341.988C-20.6827 241.654 -1.26324 113.8 84.3264 54.1724C169.916 -6.02818 320.956 1.42521 474.155 0.851868C626.634 0.278529 780.551 -8.89489 856.791 49.5857Z" fill="#F2F4F8"/>
<path d="M111.285 358.881L532.71 358.881" stroke="#9C2850" stroke-width="27" stroke-linecap="round"/>
<path d="M615.574 358.881L735.136 358.881" stroke="#9C2850" stroke-width="27" stroke-linecap="round"/>
<path d="M187.047 411.149H583.612" stroke="#9C2850" stroke-width="27" stroke-linecap="round"/>
<path d="M274.646 463.417L743.422 463.418" stroke="#9C2850" stroke-width="27" stroke-linecap="round"/>
<path d="M818 263.435L818 560" stroke="#9C2850" stroke-width="44" stroke-linecap="round"/>
<path d="M424 165C424 205.003 294.977 258 227.339 258C159.701 258 23 205.003 23 165C23 124.997 159.701 72 227.339 72C294.977 72 424 124.997 424 165Z" fill="#F0417E"/>
<circle cx="274" cy="181" r="50" fill="#9C2850"/>
</svg>
