<svg width="1065" height="656" viewBox="0 0 1065 656" fill="none" xmlns="http://www.w3.org/2000/svg">
<path d="M879.234 173.885C971.606 238.929 1070.35 326.707 1064.77 417.011C1060 507.315 950.902 599.514 825.882 636.141C700.861 672.768 559.118 655.086 407.819 612.776C257.317 569.834 96.4626 503.526 32.7579 389.225C-31.7431 274.293 0.905577 111.366 113.981 42.5331C227.057 -25.6687 419.764 0.854222 559.914 34.3236C700.065 68.4245 786.863 109.472 879.234 173.885Z" fill="#F2F4F8"/>
<ellipse cx="300" cy="471.5" rx="218" ry="72.5" fill="#F0417E"/>
<rect x="82" y="360" width="436" height="111" fill="#F0417E"/>
<ellipse cx="300" cy="360.5" rx="218" ry="72.5" fill="#F36B9B"/>
<ellipse cx="764" cy="471.5" rx="218" ry="72.5" fill="#F0417E"/>
<rect x="546" y="360" width="436" height="111" fill="#F0417E"/>
<ellipse cx="764" cy="360.5" rx="218" ry="72.5" fill="#F36B9B"/>
<ellipse cx="300" cy="317.5" rx="218" ry="72.5" fill="#F0417E"/>
<rect x="82" y="206" width="436" height="111" fill="#F0417E"/>
<ellipse cx="300" cy="206.5" rx="218" ry="72.5" fill="#F36B9B"/>
<ellipse cx="764" cy="317.5" rx="218" ry="72.5" fill="#F0417E"/>
<rect x="546" y="206" width="436" height="111" fill="#F0417E"/>
<ellipse cx="764" cy="206.5" rx="218" ry="72.5" fill="#F36B9B"/>
<path d="M300 303.5C295.858 303.5 292.5 306.858 292.5 311C292.5 315.142 295.858 318.5 300 318.5V303.5ZM796.303 316.303C799.232 313.374 799.232 308.626 796.303 305.697L748.574 257.967C745.645 255.038 740.896 255.038 737.967 257.967C735.038 260.896 735.038 265.645 737.967 268.574L780.393 311L737.967 353.426C735.038 356.355 735.038 361.104 737.967 364.033C740.896 366.962 745.645 366.962 748.574 364.033L796.303 316.303ZM300 318.5H791V303.5H300V318.5Z" fill="#9C2850"/>
<path d="M294.697 384.697C291.768 387.626 291.768 392.374 294.697 395.303L342.426 443.033C345.355 445.962 350.104 445.962 353.033 443.033C355.962 440.104 355.962 435.355 353.033 432.426L310.607 390L353.033 347.574C355.962 344.645 355.962 339.896 353.033 336.967C350.104 334.038 345.355 334.038 342.426 336.967L294.697 384.697ZM791 397.5C795.142 397.5 798.5 394.142 798.5 390C798.5 385.858 795.142 382.5 791 382.5V397.5ZM300 397.5H791V382.5H300V397.5Z" fill="#9C2850"/>
</svg>
