<svg width="1280" height="319" viewBox="0 0 1280 319" fill="none" xmlns="http://www.w3.org/2000/svg">
<path d="M198.009 83.7969V60.1818H338.722V83.7969H281.993V242H254.649V83.7969H198.009ZM394.231 161.034V242H367.686V60.1818H393.876V127.831H395.563C398.759 120.492 403.642 114.662 410.211 110.342C416.781 106.021 425.363 103.861 435.957 103.861C445.308 103.861 453.476 105.784 460.46 109.631C467.503 113.478 472.948 119.219 476.795 126.854C480.701 134.43 482.654 143.9 482.654 155.263V242H456.11V158.46C456.11 148.457 453.535 140.704 448.386 135.2C443.237 129.636 436.075 126.854 426.901 126.854C420.628 126.854 415.005 128.186 410.034 130.849C405.121 133.513 401.244 137.419 398.404 142.568C395.622 147.658 394.231 153.813 394.231 161.034ZM518.077 242V105.636H543.734V127.298H545.154C547.64 119.959 552.02 114.189 558.294 109.987C564.626 105.725 571.788 103.594 579.778 103.594C581.435 103.594 583.388 103.654 585.637 103.772C587.945 103.89 589.751 104.038 591.053 104.216V129.607C589.987 129.311 588.093 128.985 585.371 128.63C582.648 128.216 579.926 128.009 577.203 128.009C570.93 128.009 565.337 129.34 560.424 132.004C555.571 134.608 551.724 138.248 548.883 142.923C546.042 147.54 544.622 152.807 544.622 158.726V242H518.077ZM667.913 244.752C654.478 244.752 642.907 241.882 633.2 236.141C623.553 230.34 616.096 222.202 610.828 211.727C605.62 201.192 603.016 188.851 603.016 174.706C603.016 160.738 605.62 148.428 610.828 137.774C616.096 127.121 623.435 118.805 632.845 112.827C642.315 106.85 653.383 103.861 666.048 103.861C673.742 103.861 681.2 105.133 688.42 107.678C695.641 110.223 702.122 114.218 707.863 119.663C713.604 125.108 718.132 132.181 721.446 140.881C724.76 149.522 726.418 160.028 726.418 172.398V181.808H618.019V161.922H700.406C700.406 154.938 698.985 148.753 696.144 143.367C693.303 137.922 689.308 133.631 684.159 130.494C679.069 127.357 673.091 125.789 666.226 125.789C658.768 125.789 652.258 127.624 646.695 131.293C641.19 134.904 636.929 139.638 633.911 145.498C630.951 151.298 629.472 157.601 629.472 164.408V179.944C629.472 189.058 631.07 196.812 634.266 203.204C637.521 209.596 642.049 214.479 647.849 217.852C653.649 221.167 660.426 222.824 668.179 222.824C673.21 222.824 677.797 222.114 681.94 220.693C686.083 219.214 689.663 217.024 692.682 214.124C695.7 211.223 698.009 207.643 699.607 203.381L724.731 207.909C722.719 215.307 719.108 221.788 713.9 227.352C708.751 232.856 702.27 237.147 694.457 240.224C686.704 243.243 677.856 244.752 667.913 244.752ZM795.554 245.018C786.913 245.018 779.1 243.42 772.116 240.224C765.132 236.969 759.599 232.264 755.515 226.109C751.49 219.953 749.478 212.407 749.478 203.47C749.478 195.776 750.957 189.443 753.917 184.472C756.876 179.5 760.871 175.564 765.902 172.664C770.933 169.764 776.555 167.574 782.77 166.094C788.984 164.615 795.317 163.49 801.768 162.721C809.936 161.774 816.565 161.004 821.655 160.413C826.745 159.762 830.444 158.726 832.752 157.305C835.06 155.885 836.214 153.577 836.214 150.381V149.759C836.214 142.006 834.024 135.999 829.645 131.737C825.324 127.476 818.873 125.345 810.291 125.345C801.354 125.345 794.311 127.328 789.162 131.293C784.072 135.2 780.55 139.55 778.597 144.344L753.65 138.662C756.61 130.376 760.93 123.688 766.612 118.598C772.353 113.449 778.952 109.72 786.41 107.412C793.867 105.045 801.709 103.861 809.936 103.861C815.381 103.861 821.152 104.512 827.248 105.814C833.403 107.057 839.144 109.365 844.471 112.739C849.857 116.112 854.266 120.936 857.699 127.21C861.131 133.424 862.848 141.503 862.848 151.446V242H836.925V223.357H835.859C834.143 226.789 831.568 230.163 828.135 233.477C824.703 236.792 820.293 239.544 814.907 241.734C809.522 243.924 803.07 245.018 795.554 245.018ZM801.324 223.712C808.663 223.712 814.937 222.262 820.145 219.362C825.413 216.461 829.408 212.674 832.131 207.998C834.912 203.263 836.303 198.203 836.303 192.817V175.239C835.356 176.186 833.521 177.073 830.799 177.902C828.135 178.671 825.087 179.352 821.655 179.944C818.222 180.477 814.878 180.98 811.623 181.453C808.367 181.867 805.645 182.223 803.455 182.518C798.306 183.17 793.601 184.264 789.339 185.803C785.137 187.342 781.764 189.562 779.219 192.462C776.733 195.303 775.49 199.09 775.49 203.825C775.49 210.395 777.916 215.366 782.77 218.74C787.623 222.054 793.808 223.712 801.324 223.712ZM949.251 244.663C938.243 244.663 928.418 241.852 919.777 236.229C911.195 230.548 904.448 222.469 899.536 211.993C894.682 201.458 892.256 188.822 892.256 174.085C892.256 159.347 894.712 146.741 899.624 136.265C904.596 125.789 911.402 117.769 920.043 112.206C928.684 106.643 938.48 103.861 949.429 103.861C957.893 103.861 964.699 105.281 969.848 108.122C975.056 110.904 979.081 114.159 981.922 117.888C984.822 121.616 987.071 124.901 988.669 127.742H990.267V60.1818H1016.81V242H990.888V220.782H988.669C987.071 223.682 984.763 226.996 981.744 230.725C978.785 234.454 974.701 237.709 969.493 240.491C964.285 243.272 957.537 244.663 949.251 244.663ZM955.111 222.025C962.746 222.025 969.197 220.013 974.464 215.988C979.791 211.904 983.816 206.252 986.538 199.031C989.32 191.811 990.711 183.406 990.711 173.818C990.711 164.348 989.35 156.062 986.627 148.96C983.905 141.858 979.91 136.324 974.642 132.359C969.375 128.393 962.864 126.411 955.111 126.411C947.121 126.411 940.462 128.482 935.136 132.625C929.809 136.768 925.784 142.42 923.062 149.582C920.398 156.743 919.067 164.822 919.067 173.818C919.067 182.933 920.428 191.13 923.151 198.41C925.873 205.69 929.898 211.46 935.224 215.722C940.61 219.924 947.239 222.025 955.111 222.025ZM1113.47 244.752C1100.03 244.752 1088.46 241.882 1078.76 236.141C1069.11 230.34 1061.65 222.202 1056.38 211.727C1051.18 201.192 1048.57 188.851 1048.57 174.706C1048.57 160.738 1051.18 148.428 1056.38 137.774C1061.65 127.121 1068.99 118.805 1078.4 112.827C1087.87 106.85 1098.94 103.861 1111.6 103.861C1119.3 103.861 1126.76 105.133 1133.98 107.678C1141.2 110.223 1147.68 114.218 1153.42 119.663C1159.16 125.108 1163.69 132.181 1167 140.881C1170.32 149.522 1171.97 160.028 1171.97 172.398V181.808H1063.58V161.922H1145.96C1145.96 154.938 1144.54 148.753 1141.7 143.367C1138.86 137.922 1134.86 133.631 1129.72 130.494C1124.63 127.357 1118.65 125.789 1111.78 125.789C1104.33 125.789 1097.81 127.624 1092.25 131.293C1086.75 134.904 1082.49 139.638 1079.47 145.498C1076.51 151.298 1075.03 157.601 1075.03 164.408V179.944C1075.03 189.058 1076.63 196.812 1079.82 203.204C1083.08 209.596 1087.61 214.479 1093.41 217.852C1099.21 221.167 1105.98 222.824 1113.74 222.824C1118.77 222.824 1123.35 222.114 1127.5 220.693C1131.64 219.214 1135.22 217.024 1138.24 214.124C1141.26 211.223 1143.57 207.643 1145.16 203.381L1170.29 207.909C1168.28 215.307 1164.66 221.788 1159.46 227.352C1154.31 232.856 1147.83 237.147 1140.01 240.224C1132.26 243.243 1123.41 244.752 1113.47 244.752ZM1201.43 242V105.636H1227.08V127.298H1228.5C1230.99 119.959 1235.37 114.189 1241.64 109.987C1247.98 105.725 1255.14 103.594 1263.13 103.594C1264.78 103.594 1266.74 103.654 1268.99 103.772C1271.3 103.89 1273.1 104.038 1274.4 104.216V129.607C1273.34 129.311 1271.44 128.985 1268.72 128.63C1266 128.216 1263.28 128.009 1260.55 128.009C1254.28 128.009 1248.69 129.34 1243.77 132.004C1238.92 134.608 1235.07 138.248 1232.23 142.923C1229.39 147.54 1227.97 152.807 1227.97 158.726V242H1201.43Z" fill="#161616"/>
<rect x="356.687" y="260" width="659" height="8" fill="#F36B9B"/>
<rect x="405.687" y="277" width="165" height="8" fill="#F03C7B"/>
<rect x="682.687" y="277" width="140" height="8" fill="#F03C7B"/>
<rect x="850.687" y="277" width="165" height="8" fill="#F03C7B"/>
<rect x="127.687" y="260" width="206" height="8" fill="#F36B9B"/>
<rect x="127.687" y="277" width="206" height="8" fill="#F03C7B"/>
<mask id="mask0_1075_143" style="mask-type:alpha" maskUnits="userSpaceOnUse" x="92" y="99" width="116" height="194">
<path d="M157.187 293L92.6865 99.5L207.687 119L177.687 273L157.187 293Z" fill="#D9D9D9"/>
</mask>
<g mask="url(#mask0_1075_143)">
<circle cx="121.687" cy="196" r="89" fill="#F36B9B"/>
</g>
<mask id="mask1_1075_143" style="mask-type:alpha" maskUnits="userSpaceOnUse" x="0" y="107" width="156" height="212">
<rect y="139.852" width="99.2006" height="188.826" transform="rotate(-18.9328 0 139.852)" fill="#D9D9D9"/>
</mask>
<g mask="url(#mask1_1075_143)">
<circle cx="121.688" cy="196.011" r="89" fill="#F0417E"/>
</g>
<mask id="mask2_1075_143" style="mask-type:alpha" maskUnits="userSpaceOnUse" x="173" y="151" width="82" height="135">
<rect x="200.441" y="151" width="55" height="125.954" transform="rotate(12.3958 200.441 151)" fill="#D9D9D9"/>
</mask>
<g mask="url(#mask2_1075_143)">
<circle cx="121.687" cy="196" r="89" fill="#F9B3CB"/>
</g>
<rect x="200.819" y="108.18" width="15.626" height="147.369" rx="3" transform="rotate(11.9552 200.819 108.18)" fill="#161616"/>
<rect x="178.409" y="213.835" width="15.7881" height="39.0549" transform="rotate(11.9552 178.409 213.835)" fill="#161616"/>
<path d="M172.18 267.644L170.515 253.586C170.273 251.546 172.106 249.873 174.115 250.298L183.001 252.18C185.01 252.605 186.008 254.878 184.96 256.645L177.74 268.821C176.277 271.289 172.518 270.493 172.18 267.644Z" fill="#161616"/>
<rect x="67.668" y="74.9385" width="18.8048" height="204.314" rx="3" transform="rotate(-20.349 67.668 74.9385)" fill="#161616"/>
<rect x="122.198" y="222.102" width="19" height="47" transform="rotate(-20.349 122.198 222.102)" fill="#161616"/>
<path d="M151.605 282.24L139.198 266.952C137.904 265.357 138.558 262.963 140.484 262.249L152.328 257.856C154.254 257.142 156.312 258.53 156.37 260.583L156.933 280.264C157.015 283.131 153.412 284.467 151.605 282.24Z" fill="#161616"/>
</svg>
